<svg id="Layer_1" data-name="Layer 1" xmlns="http://www.w3.org/2000/svg" viewBox="0 0 100 100"><defs><style>.cls-1{fill:#fff;}</style></defs><title>small logo amadora cidade</title><path id="amadora_cidade" data-name="amadora cidade" class="cls-1" d="M46.28,67.21a.57.57,0,0,0,.21-.79L43.35,61v0l0-.05,0,0,0,0,0,0,0,0h0l-.06,0h0l-.06,0h-.22l-.05,0h0l-.06,0h0l0,0-.06,0,0,0,0,0,0,.05,0,0-3.14,5.44a.57.57,0,0,0,.21.79.6.6,0,0,0,.29.08.56.56,0,0,0,.5-.29L41,65.58h3.64L45.49,67a.57.57,0,0,0,.5.29A.6.6,0,0,0,46.28,67.21ZM41.7,64.42l1.15-2,1.15,2Zm37.58,2L76.14,61l0,0,0-.05,0,0,0,0-.05,0,0,0h0l0,0h0l-.06,0h-.22l-.06,0h0l-.06,0h0l0,0,0,0,0,0,0,0,0,.05,0,0L72,66.42a.57.57,0,0,0,.21.79.6.6,0,0,0,.29.08A.57.57,0,0,0,73,67l.82-1.42h3.64L78.28,67a.57.57,0,0,0,.5.29.6.6,0,0,0,.29-.08A.57.57,0,0,0,79.28,66.42Zm-4.79-2,1.15-2,1.15,2ZM24.86,61l0,0,0-.06,0,0,0,0-.06,0,0,0h0l-.06,0h-.05l-.05,0h-.22l-.06,0h-.05l-.05,0h0l0,0-.05,0,0,0,0,0,0,.05,0,0-3.14,5.44a.57.57,0,0,0,.21.79.6.6,0,0,0,.29.08.57.57,0,0,0,.5-.29l.82-1.42h3.64L27,67a.56.56,0,0,0,.5.29.6.6,0,0,0,.29-.08.57.57,0,0,0,.21-.79Zm-1.65,3.44,1.15-2,1.15,2Zm21.58,6.65a.5.5,0,0,0-.51.49.51.51,0,0,0,1,0A.49.49,0,0,0,44.79,71.07Zm-.39,4.37h.77V72.57H44.4Zm-7.46-14.7a.56.56,0,0,0-.64.18L33.69,64.1,30.9,60.9a.58.58,0,0,0-1,.38v5.44a.58.58,0,1,0,1.16,0V62.83l2.22,2.55a.57.57,0,0,0,.44.2.55.55,0,0,0,.44-.21l2-2.46v3.81a.58.58,0,0,0,1.16,0V61.28A.58.58,0,0,0,36.94,60.74Zm5,14.05a1.42,1.42,0,0,1,0-2.84,1.42,1.42,0,0,1,1,.43l.52-.55a2.17,2.17,0,0,0-1.52-.59,2.13,2.13,0,1,0,0,4.26,2.2,2.2,0,0,0,1.74-.79l-.55-.49A1.45,1.45,0,0,1,42,74.79Zm16.75-2.28a1.42,1.42,0,0,0-1.4,1.5,1.44,1.44,0,0,0,1.5,1.49A1.56,1.56,0,0,0,60,75l-.44-.44a1,1,0,0,1-.72.33.75.75,0,0,1-.77-.68h2a.78.78,0,0,0,0-.22A1.39,1.39,0,0,0,58.72,72.51Zm-.62,1.13a.64.64,0,0,1,.62-.51.58.58,0,0,1,.57.51Zm-2.34-.86a1.28,1.28,0,0,0-.81-.27A1.44,1.44,0,0,0,53.54,74a1.59,1.59,0,0,0,.36,1A1.48,1.48,0,0,0,55,75.5a1.22,1.22,0,0,0,.8-.29v.23h.73v-4.2h-.76Zm0,1.66a.86.86,0,0,1-.7.35.74.74,0,0,1-.75-.78.76.76,0,0,1,.74-.79.9.9,0,0,1,.71.36ZM65,43.5h0l-9-15.5a7,7,0,0,0-12.12,0h0L35,43.49h0a7,7,0,0,0,12.12,7h0l2.89-5,2.89,5A7,7,0,0,0,65,43.5ZM45.52,28.91a5.17,5.17,0,0,1,9,5.17L52.1,38.2l-1.05-1.82,1.86-3.21a3.35,3.35,0,1,0-5.82,0L51,40h-2.1l-3.42-5.92a5.19,5.19,0,0,1,0-5.17ZM56.67,40h-3.5l1.75-3ZM50,33a1.56,1.56,0,0,1-1.33-.76h0a1.56,1.56,0,0,1,0-1.53,1.54,1.54,0,0,1,2.66,0,1.56,1.56,0,0,1,0,1.53A1.54,1.54,0,0,1,50,33Zm-3.17,7h-3.5l1.75-3Zm-1.3,9.57a5.17,5.17,0,1,1-9-5.16L43.17,33a7,7,0,0,0,.77,2l.09.14L38.15,45.32h0A3.27,3.27,0,0,0,37.7,47,3.36,3.36,0,0,0,44,48.67l1.85-3.21h2.1Zm-4.48-4.11A1.53,1.53,0,0,1,42.58,47a1.53,1.53,0,0,1-1.53,1.53A1.54,1.54,0,0,1,39.52,47a1.45,1.45,0,0,1,.21-.76A1.54,1.54,0,0,1,41.05,45.46Zm.17-1.82,1.05-1.82H57.73l1.05,1.82ZM59,45.46a1.54,1.54,0,0,1,1.32.77,1.45,1.45,0,0,1,.21.76A1.54,1.54,0,0,1,59,48.52a1.53,1.53,0,0,1,0-3.06Zm0,6.7a5.19,5.19,0,0,1-4.48-2.58l-2.38-4.12h2.1L56,48.67A3.36,3.36,0,0,0,62.3,47a3.27,3.27,0,0,0-.45-1.67L56,35.13l.09-.14a7,7,0,0,0,.77-2l6.6,11.42A5.17,5.17,0,0,1,59,52.16Zm.32,8.42A3.41,3.41,0,1,0,62.68,64,3.41,3.41,0,0,0,59.27,60.58Zm0,5.66A2.25,2.25,0,1,1,61.52,64,2.25,2.25,0,0,1,59.27,66.24ZM48.19,72.78a1.28,1.28,0,0,0-.81-.27A1.44,1.44,0,0,0,46,74a1.55,1.55,0,0,0,.37,1,1.44,1.44,0,0,0,1.08.48,1.22,1.22,0,0,0,.8-.29v.23H49v-4.2h-.76Zm0,1.66a.86.86,0,0,1-.7.35.74.74,0,0,1-.75-.78.76.76,0,0,1,.74-.79.9.9,0,0,1,.71.36ZM70.44,63.13A2.45,2.45,0,0,0,68,60.68H65.06a.58.58,0,0,0-.58.58v5.45a.58.58,0,1,0,1.16,0V65.58h2.89L69.36,67a.58.58,0,0,0,.5.29.6.6,0,0,0,.29-.08.58.58,0,0,0,.21-.79L69.55,65A2.46,2.46,0,0,0,70.44,63.13ZM68,64.42H65.64V61.84H68a1.29,1.29,0,1,1,0,2.58ZM52,72.8a1.31,1.31,0,0,0-.84-.29A1.44,1.44,0,0,0,49.75,74a1.58,1.58,0,0,0,.37,1,1.46,1.46,0,0,0,1.08.48,1.22,1.22,0,0,0,.8-.29v.23h.74V72.57H52Zm0,1.64a.84.84,0,0,1-.69.35.79.79,0,0,1,0-1.57.89.89,0,0,1,.71.36Zm-.85-13.75H48.86a.58.58,0,0,0-.58.58v5.45a.58.58,0,0,0,.58.58h2.26a3.31,3.31,0,1,0,0-6.61Zm0,5.45H49.44V61.85h1.68a2.15,2.15,0,1,1,0,4.29Z"/></svg>